<svg class="main-svg" xmlns="http://www.w3.org/2000/svg" xmlns:xlink="http://www.w3.org/1999/xlink" width="700" height="500" style="" viewBox="0 0 700 500"><rect x="0" y="0" width="700" height="500" style="fill: rgb(255, 255, 255); fill-opacity: 1;"/><defs id="defs-a672d0"><g class="clips"><clipPath id="clipa672d0xyplot" class="plotclip"><rect width="508" height="366"/></clipPath><clipPath class="axesclip" id="clipa672d0x"><rect x="57" y="0" width="508" height="500"/></clipPath><clipPath class="axesclip" id="clipa672d0y"><rect x="0" y="50" width="700" height="366"/></clipPath><clipPath class="axesclip" id="clipa672d0xy"><rect x="57" y="50" width="508" height="366"/></clipPath></g><g class="gradients"/></defs><g class="bglayer"/><g class="layer-below"><g class="imagelayer"/><g class="shapelayer"/></g><g class="cartesianlayer"><g class="subplot xy"><g class="layer-subplot"><g class="shapelayer"/><g class="imagelayer"/></g><g class="gridlayer"><g class="x"><path class="xgrid crisp" transform="translate(88.65,0)" d="M0,50v366" style="stroke: rgb(238, 238, 238); stroke-opacity: 1; stroke-width: 1px;"/><path class="xgrid crisp" transform="translate(162.76999999999998,0)" d="M0,50v366" style="stroke: rgb(238, 238, 238); stroke-opacity: 1; stroke-width: 1px;"/><path class="xgrid crisp" transform="translate(236.88,0)" d="M0,50v366" style="stroke: rgb(238, 238, 238); stroke-opacity: 1; stroke-width: 1px;"/><path class="xgrid crisp" transform="translate(311,0)" d="M0,50v366" style="stroke: rgb(238, 238, 238); stroke-opacity: 1; stroke-width: 1px;"/><path class="xgrid crisp" transform="translate(385.12,0)" d="M0,50v366" style="stroke: rgb(238, 238, 238); stroke-opacity: 1; stroke-width: 1px;"/><path class="xgrid crisp" transform="translate(459.23,0)" d="M0,50v366" style="stroke: rgb(238, 238, 238); stroke-opacity: 1; stroke-width: 1px;"/><path class="xgrid crisp" transform="translate(533.35,0)" d="M0,50v366" style="stroke: rgb(238, 238, 238); stroke-opacity: 1; stroke-width: 1px;"/></g><g class="y"><path class="ygrid crisp" transform="translate(0,330.64)" d="M57,0h508" style="stroke: rgb(238, 238, 238); stroke-opacity: 1; stroke-width: 1px;"/><path class="ygrid crisp" transform="translate(0,245.27)" d="M57,0h508" style="stroke: rgb(238, 238, 238); stroke-opacity: 1; stroke-width: 1px;"/><path class="ygrid crisp" transform="translate(0,159.91)" d="M57,0h508" style="stroke: rgb(238, 238, 238); stroke-opacity: 1; stroke-width: 1px;"/><path class="ygrid crisp" transform="translate(0,74.55)" d="M57,0h508" style="stroke: rgb(238, 238, 238); stroke-opacity: 1; stroke-width: 1px;"/></g></g><g class="zerolinelayer"/><path class="xlines-below"/><path class="ylines-below"/><g class="overlines-below"/><g class="xaxislayer-below"/><g class="yaxislayer-below"/><g class="overaxes-below"/><g class="plot" transform="translate(57,50)" clip-path="url('#clipa672d0xyplot')"><g class="scatterlayer mlayer"><g class="trace scatter trace26dcea" style="stroke-miterlimit: 2; opacity: 0.8;"><g class="fills"/><g class="errorbars"/><g class="lines"><path class="js-line" d="M31.65,263.56Q152.71,45.77 179.88,41.62C202.83,38.11 303.76,140.12 328.12,161.13Q353.19,182.74 476.35,297.71" style="vector-effect: non-scaling-stroke; fill: none; stroke: rgb(31, 119, 180); stroke-opacity: 1; stroke-width: 2px; opacity: 1; stroke-dasharray: 9px, 9px;"/></g><g class="points"><path class="point" transform="translate(31.65,263.56)" d="M6.5,0L0,6.5L-6.5,0L0,-6.5Z" style="opacity: 0.8; stroke-width: 0px; fill: rgb(31, 119, 180); fill-opacity: 1;"/><path class="point" transform="translate(179.88,41.62)" d="M6.5,0L0,6.5L-6.5,0L0,-6.5Z" style="opacity: 0.8; stroke-width: 0px; fill: rgb(31, 119, 180); fill-opacity: 1;"/><path class="point" transform="translate(328.12,161.13)" d="M6.5,0L0,6.5L-6.5,0L0,-6.5Z" style="opacity: 0.8; stroke-width: 0px; fill: rgb(31, 119, 180); fill-opacity: 1;"/><path class="point" transform="translate(476.35,297.71)" d="M6.5,0L0,6.5L-6.5,0L0,-6.5Z" style="opacity: 0.8; stroke-width: 0px; fill: rgb(31, 119, 180); fill-opacity: 1;"/></g><g class="text"/></g><g class="trace scatter trace26e65e" style="stroke-miterlimit: 2; opacity: 0.8;"><g class="fills"/><g class="errorbars"/><g class="lines"><path class="js-line" d="M31.65,195.27Q153.62,308.74 179.88,314.78C203.35,320.18 303.83,288.93 328.12,280.64Q353.28,272.05 476.35,212.35" style="vector-effect: non-scaling-stroke; fill: none; stroke: rgb(255, 127, 14); stroke-opacity: 1; stroke-width: 2px; opacity: 1; stroke-dasharray: 9px, 9px;"/></g><g class="points"><path class="point" transform="translate(31.65,195.27)" d="M6.5,0L0,6.5L-6.5,0L0,-6.5Z" style="opacity: 0.8; stroke-width: 0px; fill: rgb(255, 127, 14); fill-opacity: 1;"/><path class="point" transform="translate(179.88,314.78)" d="M6.5,0L0,6.5L-6.5,0L0,-6.5Z" style="opacity: 0.8; stroke-width: 0px; fill: rgb(255, 127, 14); fill-opacity: 1;"/><path class="point" transform="translate(328.12,280.64)" d="M6.5,0L0,6.5L-6.5,0L0,-6.5Z" style="opacity: 0.8; stroke-width: 0px; fill: rgb(255, 127, 14); fill-opacity: 1;"/><path class="point" transform="translate(476.35,212.35)" d="M6.5,0L0,6.5L-6.5,0L0,-6.5Z" style="opacity: 0.8; stroke-width: 0px; fill: rgb(255, 127, 14); fill-opacity: 1;"/></g><g class="text"/></g><g class="trace scatter trace678279" style="stroke-miterlimit: 2; opacity: 0.8;"><g class="fills"/><g class="errorbars"/><g class="lines"><path class="js-line" d="M31.65,24.55Q155.8,93.42 179.88,109.91C205.28,127.31 301.86,223.38 328.12,229.42Q351.59,234.82 476.35,195.27" style="vector-effect: non-scaling-stroke; fill: none; stroke: rgb(44, 160, 44); stroke-opacity: 1; stroke-width: 2px; opacity: 1; stroke-dasharray: 9px, 9px;"/></g><g class="points"><path class="point" transform="translate(31.65,24.55)" d="M6.5,0L0,6.5L-6.5,0L0,-6.5Z" style="opacity: 0.8; stroke-width: 0px; fill: rgb(44, 160, 44); fill-opacity: 1;"/><path class="point" transform="translate(179.88,109.91)" d="M6.5,0L0,6.5L-6.5,0L0,-6.5Z" style="opacity: 0.8; stroke-width: 0px; fill: rgb(44, 160, 44); fill-opacity: 1;"/><path class="point" transform="translate(328.12,229.42)" d="M6.5,0L0,6.5L-6.5,0L0,-6.5Z" style="opacity: 0.8; stroke-width: 0px; fill: rgb(44, 160, 44); fill-opacity: 1;"/><path class="point" transform="translate(476.35,195.27)" d="M6.5,0L0,6.5L-6.5,0L0,-6.5Z" style="opacity: 0.8; stroke-width: 0px; fill: rgb(44, 160, 44); fill-opacity: 1;"/></g><g class="text"/></g><g class="trace scatter trace5fb723" style="stroke-miterlimit: 2; opacity: 0.8;"><g class="fills"/><g class="errorbars"/><g class="lines"><path class="js-line" d="M31.65,92.84Q154.53,180.82 179.88,195.27C204,209.02 304,265.65 328.12,263.56Q353.47,261.36 476.35,161.13" style="vector-effect: non-scaling-stroke; fill: none; stroke: rgb(214, 39, 40); stroke-opacity: 1; stroke-width: 2px; opacity: 1; stroke-dasharray: 9px, 9px;"/></g><g class="points"><path class="point" transform="translate(31.65,92.84)" d="M6.5,0L0,6.5L-6.5,0L0,-6.5Z" style="opacity: 0.8; stroke-width: 0px; fill: rgb(214, 39, 40); fill-opacity: 1;"/><path class="point" transform="translate(179.88,195.27)" d="M6.5,0L0,6.5L-6.5,0L0,-6.5Z" style="opacity: 0.8; stroke-width: 0px; fill: rgb(214, 39, 40); fill-opacity: 1;"/><path class="point" transform="translate(328.12,263.56)" d="M6.5,0L0,6.5L-6.5,0L0,-6.5Z" style="opacity: 0.8; stroke-width: 0px; fill: rgb(214, 39, 40); fill-opacity: 1;"/><path class="point" transform="translate(476.35,161.13)" d="M6.5,0L0,6.5L-6.5,0L0,-6.5Z" style="opacity: 0.8; stroke-width: 0px; fill: rgb(214, 39, 40); fill-opacity: 1;"/></g><g class="text"/></g></g></g><g class="overplot"/><path class="xlines-above crisp" d="M56,416.5H565" style="fill: none; stroke-width: 1px; stroke: rgb(188, 204, 220); stroke-opacity: 1;"/><path class="ylines-above crisp" d="M56.5,50V416" style="fill: none; stroke-width: 1px; stroke: rgb(188, 204, 220); stroke-opacity: 1;"/><g class="overlines-above"/><g class="xaxislayer-above"><g class="xtick"><text text-anchor="middle" x="0" y="438.6" transform="translate(88.65,0)" style="font-family: Inter; font-size: 18px; fill: rgb(31, 119, 180); fill-opacity: 1; white-space: pre;"><tspan class="line" dy="0em" x="0" y="438.6">00:00</tspan><tspan class="line" dy="1.3em" x="0" y="438.6">Apr 15, 2020</tspan></text></g><g class="xtick"><text text-anchor="middle" x="0" y="438.6" transform="translate(162.76999999999998,0)" style="font-family: Inter; font-size: 18px; fill: rgb(31, 119, 180); fill-opacity: 1; white-space: pre;">12:00</text></g><g class="xtick"><text text-anchor="middle" x="0" y="438.6" transform="translate(236.88,0)" style="font-family: Inter; font-size: 18px; fill: rgb(31, 119, 180); fill-opacity: 1; white-space: pre;"><tspan class="line" dy="0em" x="0" y="438.6">00:00</tspan><tspan class="line" dy="1.3em" x="0" y="438.6">Apr 16, 2020</tspan></text></g><g class="xtick"><text text-anchor="middle" x="0" y="438.6" transform="translate(311,0)" style="font-family: Inter; font-size: 18px; fill: rgb(31, 119, 180); fill-opacity: 1; white-space: pre;">12:00</text></g><g class="xtick"><text text-anchor="middle" x="0" y="438.6" transform="translate(385.12,0)" style="font-family: Inter; font-size: 18px; fill: rgb(31, 119, 180); fill-opacity: 1; white-space: pre;"><tspan class="line" dy="0em" x="0" y="438.6">00:00</tspan><tspan class="line" dy="1.3em" x="0" y="438.6">Apr 17, 2020</tspan></text></g><g class="xtick"><text text-anchor="middle" x="0" y="438.6" transform="translate(459.23,0)" style="font-family: Inter; font-size: 18px; fill: rgb(31, 119, 180); fill-opacity: 1; white-space: pre;">12:00</text></g><g class="xtick"><text text-anchor="middle" x="0" y="438.6" transform="translate(533.35,0)" style="font-family: Inter; font-size: 18px; fill: rgb(31, 119, 180); fill-opacity: 1; white-space: pre;"><tspan class="line" dy="0em" x="0" y="438.6">00:00</tspan><tspan class="line" dy="1.3em" x="0" y="438.6">Apr 18, 2020</tspan></text></g></g><g class="yaxislayer-above"><g class="ytick"><text text-anchor="end" x="52.4" y="6.3" transform="translate(0,416)" style="font-family: Inter; font-size: 18px; fill: rgb(31, 119, 180); fill-opacity: 1; white-space: pre;">0</text></g><g class="ytick"><text text-anchor="end" x="52.4" y="6.3" transform="translate(0,330.64)" style="font-family: Inter; font-size: 18px; fill: rgb(31, 119, 180); fill-opacity: 1; white-space: pre;">5</text></g><g class="ytick"><text text-anchor="end" x="52.4" y="6.3" transform="translate(0,245.27)" style="font-family: Inter; font-size: 18px; fill: rgb(31, 119, 180); fill-opacity: 1; white-space: pre;">10</text></g><g class="ytick"><text text-anchor="end" x="52.4" y="6.3" transform="translate(0,159.91)" style="font-family: Inter; font-size: 18px; fill: rgb(31, 119, 180); fill-opacity: 1; white-space: pre;">15</text></g><g class="ytick"><text text-anchor="end" x="52.4" y="6.3" transform="translate(0,74.55)" style="font-family: Inter; font-size: 18px; fill: rgb(31, 119, 180); fill-opacity: 1; white-space: pre;">20</text></g></g><g class="overaxes-above"/></g></g><g class="polarlayer"/><g class="ternarylayer"/><g class="geolayer"/><g class="funnelarealayer"/><g class="pielayer"/><g class="treemaplayer"/><g class="sunburstlayer"/><g class="glimages"/><defs id="topdefs-a672d0"><g class="clips"/><clipPath id="legenda672d0"><rect width="96" height="125" x="1" y="1"/></clipPath></defs><g class="layer-above"><g class="imagelayer"/><g class="shapelayer"/></g><g class="infolayer"><g class="legend" pointer-events="all" transform="translate(590.4,169.5)"><rect class="bg" shape-rendering="crispEdges" style="stroke: rgb(51, 51, 51); stroke-opacity: 1; fill: rgb(255, 255, 255); fill-opacity: 1; stroke-width: 1px;" width="97" height="126" x="0.5" y="0.5"/><g class="scrollbox" transform="" clip-path="url('#legenda672d0')"><text class="legendtitletext" text-anchor="start" x="3" y="20.5" style="font-family: Inter; font-size: 15px; fill: rgb(0, 0, 0); fill-opacity: 1; white-space: pre;">Legend</text><g class="groups"><g class="traces" transform="translate(1,37.4)" style="opacity: 1;"><text class="legendtext" text-anchor="start" x="40" y="6.24" style="font-family: Inter; font-size: 16px; fill: rgb(0, 0, 0); fill-opacity: 1; white-space: pre;">Ford</text><g class="layers" style="opacity: 0.8;"><g class="legendfill"/><g class="legendlines"><path class="js-line" d="M5,0h30" style="fill: none; stroke: rgb(31, 119, 180); stroke-opacity: 1; stroke-dasharray: 9px, 9px; stroke-width: 2px;"/></g><g class="legendsymbols"><g class="legendpoints"><path class="scatterpts" transform="translate(20,0)" d="M6.5,0L0,6.5L-6.5,0L0,-6.5Z" style="opacity: 0.8; stroke-width: 0px; fill: rgb(31, 119, 180); fill-opacity: 1;"/></g></g></g><rect class="legendtoggle" x="0" y="-11.9" width="90.328125" height="23.8" style="fill: rgb(0, 0, 0); fill-opacity: 0;"/></g><g class="traces" transform="translate(1,61.199999999999996)" style="opacity: 1;"><text class="legendtext" text-anchor="start" x="40" y="6.24" style="font-family: Inter; font-size: 16px; fill: rgb(0, 0, 0); fill-opacity: 1; white-space: pre;">Honda</text><g class="layers" style="opacity: 0.8;"><g class="legendfill"/><g class="legendlines"><path class="js-line" d="M5,0h30" style="fill: none; stroke: rgb(255, 127, 14); stroke-opacity: 1; stroke-dasharray: 9px, 9px; stroke-width: 2px;"/></g><g class="legendsymbols"><g class="legendpoints"><path class="scatterpts" transform="translate(20,0)" d="M6.5,0L0,6.5L-6.5,0L0,-6.5Z" style="opacity: 0.8; stroke-width: 0px; fill: rgb(255, 127, 14); fill-opacity: 1;"/></g></g></g><rect class="legendtoggle" x="0" y="-11.9" width="90.328125" height="23.8" style="fill: rgb(0, 0, 0); fill-opacity: 0;"/></g><g class="traces" transform="translate(1,85)" style="opacity: 1;"><text class="legendtext" text-anchor="start" x="40" y="6.24" style="font-family: Inter; font-size: 16px; fill: rgb(0, 0, 0); fill-opacity: 1; white-space: pre;">Toyota</text><g class="layers" style="opacity: 0.8;"><g class="legendfill"/><g class="legendlines"><path class="js-line" d="M5,0h30" style="fill: none; stroke: rgb(44, 160, 44); stroke-opacity: 1; stroke-dasharray: 9px, 9px; stroke-width: 2px;"/></g><g class="legendsymbols"><g class="legendpoints"><path class="scatterpts" transform="translate(20,0)" d="M6.5,0L0,6.5L-6.5,0L0,-6.5Z" style="opacity: 0.8; stroke-width: 0px; fill: rgb(44, 160, 44); fill-opacity: 1;"/></g></g></g><rect class="legendtoggle" x="0" y="-11.9" width="90.328125" height="23.8" style="fill: rgb(0, 0, 0); fill-opacity: 0;"/></g><g class="traces" transform="translate(1,108.80000000000001)" style="opacity: 1;"><text class="legendtext" text-anchor="start" x="40" y="6.24" style="font-family: Inter; font-size: 16px; fill: rgb(0, 0, 0); fill-opacity: 1; white-space: pre;">Renault</text><g class="layers" style="opacity: 0.8;"><g class="legendfill"/><g class="legendlines"><path class="js-line" d="M5,0h30" style="fill: none; stroke: rgb(214, 39, 40); stroke-opacity: 1; stroke-dasharray: 9px, 9px; stroke-width: 2px;"/></g><g class="legendsymbols"><g class="legendpoints"><path class="scatterpts" transform="translate(20,0)" d="M6.5,0L0,6.5L-6.5,0L0,-6.5Z" style="opacity: 0.8; stroke-width: 0px; fill: rgb(214, 39, 40); fill-opacity: 1;"/></g></g></g><rect class="legendtoggle" x="0" y="-11.9" width="90.328125" height="23.8" style="fill: rgb(0, 0, 0); fill-opacity: 0;"/></g></g></g><rect class="scrollbar" rx="20" ry="3" width="0" height="0" style="fill: rgb(128, 139, 164); fill-opacity: 1;" x="0" y="0"/></g><g class="g-gtitle"><text class="gtitle" x="350" y="25" text-anchor="middle" dy="0em" style="font-family: Inter; font-size: 25px; fill: rgb(68, 68, 68); opacity: 1; font-weight: normal; white-space: pre;">Number of automobiles sold per day by manufacturer</text></g><g class="g-xtitle"><text class="xtitle" x="311" y="492" text-anchor="middle" style="font-family: Inter; font-size: 22px; fill: rgb(31, 119, 180); opacity: 1; font-weight: normal; white-space: pre;">Date</text></g><g class="g-ytitle" transform="translate(17,0)"><text class="ytitle" transform="rotate(-90,3,233)" x="3" y="233" text-anchor="middle" style="font-family: Inter; font-size: 22px; fill: rgb(31, 119, 180); opacity: 1; font-weight: normal; white-space: pre;">Numbers of automobiles sold</text></g></g></svg>